name rise37.2698peak67.6939fall79.5734.mot
datacolumns 19
datarows 21
range 9.44996900000000 9.48330200000000
endheader
time	ground_force1_vx	ground_force1_vy	ground_force1_vz	ground_force1_px	ground_force1_py	ground_force1_pz	ground_force2_vx	ground_force2_vy	ground_force2_vz	ground_force2_px	ground_force2_py	ground_force2_pz	ground_torque1_x	ground_torque1_y	ground_torque1_z	ground_torque2_x	ground_torque2_y	ground_torque2_z	
9.44996900000000	63.06192000000000	777.83646199999998	57.05736400000000	0.32812300000000	0.00000000000000	0.10727200000000	0.00000000000000	0.00000000000000	0.00000000000000	0.00000000000000	0.00000000000000	0.00000000000000	0.00000000000000	23.94284700000000	0.00000000000000	0.00000000000000	0.00000000000000	0.00000000000000	
9.45163200000000	62.27873300000000	779.64659600000005	57.11529200000000	0.32721400000000	0.00000000000000	0.10726200000000	0.00000000000000	0.00000000000000	0.00000000000000	0.00000000000000	0.00000000000000	0.00000000000000	0.00000000000000	23.99961200000000	0.00000000000000	0.00000000000000	0.00000000000000	0.00000000000000	
9.45329700000000	61.49883500000000	781.32212200000004	57.17084000000000	0.32632500000000	0.00000000000000	0.10725300000000	0.00000000000000	0.00000000000000	0.00000000000000	0.00000000000000	0.00000000000000	0.00000000000000	0.00000000000000	24.05588900000000	0.00000000000000	0.00000000000000	0.00000000000000	0.00000000000000	
9.45496900000000	60.72258600000000	782.86315400000001	57.22385300000000	0.32545600000000	0.00000000000000	0.10724300000000	0.00000000000000	0.00000000000000	0.00000000000000	0.00000000000000	0.00000000000000	0.00000000000000	0.00000000000000	24.11148900000000	0.00000000000000	0.00000000000000	0.00000000000000	0.00000000000000	
9.45663700000000	59.95027400000000	784.26999200000000	57.27412200000000	0.32460300000000	0.00000000000000	0.10723400000000	0.00000000000000	0.00000000000000	0.00000000000000	0.00000000000000	0.00000000000000	0.00000000000000	0.00000000000000	24.16619000000000	0.00000000000000	0.00000000000000	0.00000000000000	0.00000000000000	
9.45830300000000	59.18212400000000	785.54312400000003	57.32139000000000	0.32376600000000	0.00000000000000	0.10722500000000	0.00000000000000	0.00000000000000	0.00000000000000	0.00000000000000	0.00000000000000	0.00000000000000	0.00000000000000	24.21974200000000	0.00000000000000	0.00000000000000	0.00000000000000	0.00000000000000	
9.45996500000000	58.41829900000000	786.68323099999998	57.36535000000000	0.32294200000000	0.00000000000000	0.10721600000000	0.00000000000000	0.00000000000000	0.00000000000000	0.00000000000000	0.00000000000000	0.00000000000000	0.00000000000000	24.27186700000000	0.00000000000000	0.00000000000000	0.00000000000000	0.00000000000000	
9.46163100000000	57.65890400000000	787.69119699999999	57.40565500000000	0.32213000000000	0.00000000000000	0.10720800000000	0.00000000000000	0.00000000000000	0.00000000000000	0.00000000000000	0.00000000000000	0.00000000000000	0.00000000000000	24.32226500000000	0.00000000000000	0.00000000000000	0.00000000000000	0.00000000000000	
9.46329700000000	56.90398900000000	788.56810499999995	57.44192200000000	0.32132700000000	0.00000000000000	0.10720000000000	0.00000000000000	0.00000000000000	0.00000000000000	0.00000000000000	0.00000000000000	0.00000000000000	0.00000000000000	24.37061300000000	0.00000000000000	0.00000000000000	0.00000000000000	0.00000000000000	
9.46524100000000	56.15355900000000	789.31524400000001	57.47373700000000	0.32053100000000	0.00000000000000	0.10719200000000	0.00000000000000	0.00000000000000	0.00000000000000	0.00000000000000	0.00000000000000	0.00000000000000	0.00000000000000	24.41657300000000	0.00000000000000	0.00000000000000	0.00000000000000	0.00000000000000	
9.46663300000000	55.40757100000000	789.93410500000005	57.50065900000000	0.31974000000000	0.00000000000000	0.10718500000000	0.00000000000000	0.00000000000000	0.00000000000000	0.00000000000000	0.00000000000000	0.00000000000000	0.00000000000000	24.45979000000000	0.00000000000000	0.00000000000000	0.00000000000000	0.00000000000000	
9.46829600000000	54.66594400000000	790.42638699999998	57.52222500000000	0.31895200000000	0.00000000000000	0.10717800000000	0.00000000000000	0.00000000000000	0.00000000000000	0.00000000000000	0.00000000000000	0.00000000000000	0.00000000000000	24.49990200000000	0.00000000000000	0.00000000000000	0.00000000000000	0.00000000000000	
9.46996900000000	53.92856200000000	790.79399200000000	57.53795700000000	0.31816400000000	0.00000000000000	0.10717200000000	0.00000000000000	0.00000000000000	0.00000000000000	0.00000000000000	0.00000000000000	0.00000000000000	0.00000000000000	24.53653700000000	0.00000000000000	0.00000000000000	0.00000000000000	0.00000000000000	
9.47163700000000	53.19527800000000	791.03902300000004	57.54736600000000	0.31737500000000	0.00000000000000	0.10716600000000	0.00000000000000	0.00000000000000	0.00000000000000	0.00000000000000	0.00000000000000	0.00000000000000	0.00000000000000	24.56932000000000	0.00000000000000	0.00000000000000	0.00000000000000	0.00000000000000	
9.47330100000000	52.46591800000000	791.16378299999997	57.54995900000000	0.31658200000000	0.00000000000000	0.10716100000000	0.00000000000000	0.00000000000000	0.00000000000000	0.00000000000000	0.00000000000000	0.00000000000000	0.00000000000000	24.59787600000000	0.00000000000000	0.00000000000000	0.00000000000000	0.00000000000000	
9.47496700000000	51.74029000000000	791.17077200000006	57.54524200000000	0.31578300000000	0.00000000000000	0.10715700000000	0.00000000000000	0.00000000000000	0.00000000000000	0.00000000000000	0.00000000000000	0.00000000000000	0.00000000000000	24.62183200000000	0.00000000000000	0.00000000000000	0.00000000000000	0.00000000000000	
9.47663600000000	51.01818200000000	791.06267600000001	57.53272400000000	0.31497700000000	0.00000000000000	0.10715300000000	0.00000000000000	0.00000000000000	0.00000000000000	0.00000000000000	0.00000000000000	0.00000000000000	0.00000000000000	24.64082200000000	0.00000000000000	0.00000000000000	0.00000000000000	0.00000000000000	
9.47830100000000	50.29937200000000	790.84236999999996	57.51192800000000	0.31416000000000	0.00000000000000	0.10715100000000	0.00000000000000	0.00000000000000	0.00000000000000	0.00000000000000	0.00000000000000	0.00000000000000	0.00000000000000	24.65449000000000	0.00000000000000	0.00000000000000	0.00000000000000	0.00000000000000	
9.47996500000000	49.58362800000000	790.51290500000005	57.48238800000000	0.31333200000000	0.00000000000000	0.10714800000000	0.00000000000000	0.00000000000000	0.00000000000000	0.00000000000000	0.00000000000000	0.00000000000000	0.00000000000000	24.66249200000000	0.00000000000000	0.00000000000000	0.00000000000000	0.00000000000000	
9.48163000000000	48.87071600000000	790.07750299999998	57.44365900000000	0.31249000000000	0.00000000000000	0.10714700000000	0.00000000000000	0.00000000000000	0.00000000000000	0.00000000000000	0.00000000000000	0.00000000000000	0.00000000000000	24.66449900000000	0.00000000000000	0.00000000000000	0.00000000000000	0.00000000000000	
9.48330200000000	48.16040000000000	789.53954899999997	57.39531900000000	0.31163200000000	0.00000000000000	0.10714600000000	0.00000000000000	0.00000000000000	0.00000000000000	0.00000000000000	0.00000000000000	0.00000000000000	0.00000000000000	24.66020200000000	0.00000000000000	0.00000000000000	0.00000000000000	0.00000000000000	
